<?xml version="1.0" encoding="utf-8"?>
<!-- Generator: Adobe Illustrator 17.0.0, SVG Export Plug-In . SVG Version: 6.00 Build 0)  -->
<!DOCTYPE svg PUBLIC "-//W3C//DTD SVG 1.1//EN" "http://www.w3.org/Graphics/SVG/1.1/DTD/svg11.dtd">
<svg version="1.1" id="Layer_1" xmlns="http://www.w3.org/2000/svg" xmlns:xlink="http://www.w3.org/1999/xlink" x="0px" y="0px"
	 width="480px" height="490.568px" viewBox="0 0 480 490.568" enable-background="new 0 0 480 490.568" xml:space="preserve">
<g>
	<ellipse fill="#FFFFFF" cx="239.643" cy="245.284" rx="239.643" ry="245.284"/>
	<g>
		<defs>
			<ellipse id="SVGID_1_" cx="239.643" cy="245.284" rx="239.643" ry="245.284"/>
		</defs>
		<clipPath id="SVGID_2_">
			<use xlink:href="#SVGID_1_"  overflow="visible"/>
		</clipPath>
		<g clip-path="url(#SVGID_2_)">
			<g>
				<g>
					<path fill="#C57D49" d="M325.94,219.936c8.225-16.683,30.043-10.587,25.342,12.437c-4.698,23.025-21.818,32.187-33.801,20.204
						C317.245,245.296,325.94,219.936,325.94,219.936z"/>
					<path fill="#C57D49" d="M156.08,219.936c-8.225-16.683-30.043-10.587-25.345,12.437c4.701,23.025,21.821,32.187,33.804,20.204
						C164.772,245.296,156.08,219.936,156.08,219.936z"/>
					<path fill="#C57D49" d="M371.591,453.19c-3.548-50.014-107.498-63.392-100.986-131.945l-29.714,3.713l-29.707-3.713
						c6.515,68.553-97.441,81.931-100.989,131.945c15.848,17.15,88.545,59.344,130.582,59.487c0,0.006,0,0.006,0,0.012
						c0.036,0,0.078-0.006,0.114-0.006c0.039,0,0.078,0.006,0.117,0.006c0-0.006,0-0.006,0-0.012
						C283.046,512.533,355.746,470.34,371.591,453.19z"/>
					<path fill="#4A1000" d="M287.92,369.474c-4.533,11.677-16.387,32.013-43.99,32.013c-27.728,2.497-48.783-16.007-55.685-26.27
						c-29.163,27.737-75.697,44.798-78.051,77.973c15.848,17.15,88.545,59.344,130.582,59.487c0,0.006,0,0.006,0,0.012
						c0.036,0,0.078-0.006,0.114-0.006c0.039,0,0.078,0.006,0.117,0.006c0-0.006,0-0.006,0-0.012
						c42.038-0.143,114.738-42.337,130.582-59.487C369.079,417.781,316.257,400.733,287.92,369.474z"/>
					<path fill="#AB622E" d="M241.128,361.426c9.716-0.305,21.588-5.665,33.19-13.042c-3.207-8.036-4.683-16.977-3.713-27.139
						l-29.714,3.713l-29.707-3.713c0.973,10.252-0.536,19.258-3.794,27.349c11.488,7.27,23.234,12.533,32.851,12.833
						c0,0.018,0,0.036,0,0.048c0.147,0,0.3-0.018,0.443-0.024c0.147,0.006,0.296,0.024,0.443,0.024
						C241.128,361.462,241.128,361.444,241.128,361.426z"/>
					<path fill="#C57D49" d="M240.844,89.77v-0.006c-0.054,0-0.105,0-0.159,0c-0.054,0-0.108,0-0.162,0v0.006
						c-122.948,0.317-82.09,181.378-80.212,191.701c1.856,10.24,50.687,56.828,79.931,57.757c0,0.012,0,0.03,0,0.042
						c0.147,0,0.3-0.018,0.443-0.018c0.147,0,0.296,0.018,0.443,0.018c0-0.012,0-0.03,0-0.042
						c29.241-0.928,78.075-47.517,79.934-57.757C322.934,271.147,363.794,90.087,240.844,89.77z"/>
					<path fill="#FFFFFF" d="M266.791,241.769c1.877-23.492,34.064-39.942,41.109-12.45
						C298.975,254.692,271.019,257.506,266.791,241.769z"/>
					<g>
						<g>
							<g>
								<path fill="#261204" d="M276.423,194.312c-0.036-0.083,0.387-0.346,1.188-0.753c0.799-0.413,1.974-0.973,3.493-1.506
									c3.007-1.115,7.37-2.283,12.328-2.454c2.476-0.05,4.842,0.166,6.954,0.592c2.112,0.443,3.946,1.153,5.393,1.917
									c1.452,0.773,2.46,1.685,3.061,2.376c0.573,0.726,0.776,1.197,0.711,1.236c-0.087,0.059-0.432-0.304-1.074-0.874
									c-0.677-0.542-1.692-1.278-3.113-1.904c-1.419-0.616-3.181-1.199-5.21-1.559c-2.031-0.342-4.298-0.513-6.685-0.466
									c-4.779,0.165-9.047,1.151-12.075,2.022c-1.527,0.411-2.738,0.831-3.588,1.095
									C276.951,194.291,276.459,194.395,276.423,194.312z"/>
							</g>
						</g>
					</g>
					<g>
						<path fill="#261204" d="M281.564,218.355c-5.86,3.533-11,9.569-13.408,16.785c0.934,7.066,6.252,12.503,12.731,12.503
							c7.135,0,12.92-6.575,12.92-14.683C293.807,225.116,288.375,218.762,281.564,218.355z"/>
					</g>
					<g>
						<g>
							<g>
								<path d="M267.961,233.78c-0.118-0.055,0.187-1.005,0.912-2.662c0.764-1.633,1.983-3.968,3.939-6.578
									c0.956-1.32,2.158-2.653,3.525-4.013c1.403-1.322,3.012-2.639,4.881-3.784c1.865-1.143,3.998-2.112,6.353-2.674
									c2.348-0.562,4.926-0.702,7.487-0.194c2.548,0.556,4.902,1.748,6.743,3.376c1.836,1.64,3.175,3.629,4.098,5.636
									c0.479,1,0.818,2.023,1.121,3.016c0.129,0.503,0.257,0.998,0.382,1.485c0.051,0.223,0.1,0.541,0.126,0.684l0.012,0.134
									c0.011,0.029-0.008,0.123,0.029,0.106l0.145-0.062l0.179-0.081c0.191-0.106,0.381-0.212,0.569-0.316
									c0.758-0.406,1.461-0.839,2.138-1.244c2.696-1.643,4.687-3.237,6.021-4.391c1.267-1.209,1.97-1.918,2.092-1.828
									c0.099,0.068-0.397,0.942-1.543,2.367c-1.204,1.361-3.133,3.182-5.807,5.024c-0.671,0.455-1.373,0.937-2.134,1.391
									c-0.189,0.116-0.379,0.234-0.572,0.352c-0.33,0.182-0.664,0.366-1,0.552c-0.35,0.19-0.703,0.382-1.059,0.576l-0.14,0.074
									c-0.021,0.007-0.052,0.037-0.064,0.025l-0.016-0.075l-0.066-0.3l-0.134-0.608c-0.086-0.416-0.173-0.835-0.261-1.258
									c-0.07-0.325-0.097-0.484-0.16-0.732c-0.131-0.449-0.265-0.906-0.4-1.369c-0.31-0.91-0.645-1.843-1.103-2.739
									c-0.882-1.805-2.108-3.545-3.726-4.958c-1.625-1.401-3.654-2.41-5.873-2.9c-4.503-0.894-9.024,0.448-12.507,2.499
									c-1.764,1.024-3.316,2.216-4.695,3.419c-1.345,1.243-2.556,2.462-3.546,3.681
									C269.895,230.267,268.282,233.95,267.961,233.78z"/>
							</g>
						</g>
					</g>
					<path fill="#FFFFFF" d="M214.583,241.769c-1.88-23.492-34.067-39.942-41.115-12.45
						C182.393,254.692,210.352,257.506,214.583,241.769z"/>
					<g>
						<g>
							<g>
								<path fill="#261204" d="M204.947,194.313c-0.036,0.083-0.528-0.021-1.381-0.278c-0.85-0.264-2.061-0.685-3.588-1.095
									c-3.029-0.871-7.296-1.857-12.075-2.022c-2.387-0.047-4.654,0.124-6.685,0.466c-2.029,0.36-3.791,0.943-5.21,1.559
									c-1.422,0.625-2.436,1.361-3.114,1.903c-0.643,0.57-0.987,0.933-1.074,0.874c-0.065-0.039,0.137-0.51,0.71-1.236
									c0.601-0.691,1.61-1.603,3.061-2.376c1.448-0.764,3.282-1.474,5.393-1.917c2.112-0.426,4.477-0.642,6.954-0.592
									c4.958,0.171,9.321,1.338,12.328,2.453c1.519,0.533,2.694,1.093,3.492,1.506
									C204.561,193.966,204.984,194.229,204.947,194.313z"/>
							</g>
						</g>
					</g>
					<g>
						<path fill="#261204" d="M199.806,218.355c-6.814,0.407-12.243,6.761-12.243,14.605c0,8.108,5.785,14.683,12.922,14.683
							c6.476,0,11.794-5.438,12.728-12.503C210.807,227.924,205.666,221.888,199.806,218.355z"/>
					</g>
					<g>
						<g>
							<g>
								<path d="M213.405,233.781c-0.32,0.169-1.933-3.514-5.943-8.369c-0.99-1.22-2.201-2.439-3.546-3.681
									c-1.379-1.203-2.931-2.395-4.695-3.419c-3.483-2.051-8.004-3.393-12.507-2.499c-2.218,0.49-4.248,1.499-5.872,2.901
									c-1.617,1.414-2.843,3.154-3.724,4.959c-0.457,0.897-0.793,1.83-1.102,2.74c-0.135,0.463-0.268,0.92-0.4,1.369
									c-0.143,0.675-0.283,1.34-0.421,1.993l-0.134,0.608l-0.066,0.3l-0.016,0.075c-0.019-0.003-0.045-0.022-0.068-0.033
									l-0.14-0.074c-0.356-0.193-0.709-0.385-1.059-0.575c-0.336-0.185-0.669-0.369-0.998-0.551
									c-0.192-0.119-0.383-0.236-0.572-0.352c-0.761-0.454-1.462-0.936-2.134-1.391c-2.675-1.841-4.604-3.662-5.808-5.023
									c-1.146-1.425-1.642-2.299-1.543-2.367c0.123-0.09,0.826,0.619,2.093,1.828c1.335,1.155,3.325,2.748,6.022,4.39
									c0.677,0.405,1.38,0.837,2.138,1.243c0.188,0.104,0.377,0.21,0.569,0.316l0.18,0.082l0.145,0.062
									c0.038,0.019,0.018-0.077,0.03-0.105l0.012-0.134c0.025-0.138,0.075-0.46,0.125-0.682c0.125-0.488,0.252-0.983,0.382-1.485
									c0.303-0.994,0.641-2.016,1.12-3.017c0.922-2.008,2.26-3.997,4.096-5.637c1.84-1.629,4.195-2.821,6.742-3.377
									c2.561-0.509,5.14-0.368,7.487,0.194c2.355,0.561,4.487,1.531,6.353,2.674c1.869,1.145,3.477,2.462,4.88,3.784
									c1.366,1.36,2.569,2.692,3.525,4.013c1.956,2.609,3.175,4.944,3.939,6.578C213.219,232.776,213.524,233.726,213.405,233.781
									z"/>
							</g>
						</g>
					</g>
					<g>
						<g>
							<g>
								<g>
									<path fill="#9E5828" d="M227.43,272.949c0.08-0.163,1.62,0.314,4.02,1.208c2.452,0.669,5.858,1.878,9.677,1.924
										c3.819-0.043,7.225-1.254,9.677-1.923c2.399-0.895,3.94-1.372,4.019-1.209c0.08,0.164-1.326,0.944-3.691,2.081
										c-2.438,0.909-5.856,2.311-10.006,2.369c-4.149-0.06-7.567-1.461-10.005-2.37
										C228.757,273.893,227.351,273.113,227.43,272.949z"/>
								</g>
							</g>
						</g>
					</g>
					<path fill="#931E22" d="M241.128,300.549c2.227-0.054,19.884-0.623,27.363-5.048c-4.812,1.437-21.734-13.701-27.483-3.347
						c-5.743-10.354-22.668,4.784-27.483,3.347c7.483,4.425,25.136,4.994,27.366,5.048v0.006c0,0,0.078,0,0.117-0.006
						c0.042,0.006,0.12,0.006,0.12,0.006V300.549z"/>
					<path fill="#AB252B" d="M241.009,299.532c-9.398,0-23.255-1.844-31.36-6.312c17.857,18.444,23.729,19.881,31.36,19.881
						c7.638,0,13.51-1.437,31.363-19.881C264.27,297.687,250.407,299.532,241.009,299.532z"/>
					<g>
						<g>
							<g>
								<path fill="#9E5828" d="M211.409,290.286c0.266,0.243-0.46,1.477-1.807,2.591c-0.666,0.559-1.397,0.948-1.97,1.129
									c-0.613,0.151-1.006,0.097-1.041-0.074c-0.041-0.183,0.221-0.447,0.609-0.753c0.392-0.356,0.941-0.799,1.567-1.323
									C210.017,290.825,211.14,290.037,211.409,290.286z"/>
							</g>
						</g>
					</g>
					<g>
						<g>
							<g>
								<path fill="#9E5828" d="M270.612,290.285c0.268-0.248,1.391,0.539,2.642,1.572c0.625,0.524,1.175,0.967,1.567,1.323
									c0.388,0.305,0.65,0.569,0.609,0.752c-0.035,0.171-0.427,0.225-1.041,0.075c-0.573-0.181-1.304-0.57-1.97-1.129
									C271.071,291.763,270.345,290.529,270.612,290.285z"/>
							</g>
						</g>
					</g>
					<path fill="#FFFFFF" d="M196.857,233.613c0,1.856-1.503,3.359-3.356,3.359s-3.356-1.503-3.356-3.359
						c0-1.85,1.503-3.353,3.356-3.353S196.857,231.763,196.857,233.613z"/>
					<path fill="#FFFFFF" d="M278.782,233.613c0,1.856-1.5,3.359-3.353,3.359c-1.856,0-3.359-1.503-3.359-3.359
						c0-1.85,1.503-3.353,3.359-3.353C277.282,230.26,278.782,231.763,278.782,233.613z"/>
					<path fill="#472108" d="M175.8,114.196c-23.914-4.797-39.28,39.397-30.89,96.465c4.865,16.546,8.183,13.665,8.183,13.665
						c3.731-15.096,5.024-43.66,5.024-43.66c11.746-13.725,21.345-37.918,19.971-53.313c16.599,19.851,65.353,47.08,74.904,33.642
						c25.42,12.641,47.972,12.288,50.792,9.467c16.21,16.21,18.65,52.912,22.555,55.331c3.285,2.509,5.644-3.946,7.048-15.156
						c2.599-20.785,2.114-57.792-4.333-78.231C321.443,108.291,224.487,40.421,175.8,114.196z"/>
					<path fill="#FBB03B" d="M286.283,362.762c0,0-2.359-1.407-2.829,1.413c-3.404,15.192-24.753,33.187-42.768,34.762
						c-18.015-1.575-39.363-19.57-42.768-34.762c-0.467-2.82-2.829-1.413-2.829-1.413c-6.569,11.515-18.662,20.474-18.662,20.474
						c10.195,29.528,38.717,57.816,64.26,25.899c25.543,31.917,54.068,3.629,64.26-25.899
						C304.945,383.235,292.855,374.277,286.283,362.762z"/>
					<path fill="#FBB03B" d="M124.205,425.177c1.59,0.874,3.386,1.419,5.33,1.419c6.126,0,11.087-4.964,11.087-11.084
						c0-1.449-0.299-2.826-0.805-4.096C134.014,415.847,128.675,420.374,124.205,425.177z"/>
					<path fill="#FBB03B" d="M164.203,449.082c0,6.114-4.964,11.078-11.084,11.078c-6.123,0-11.087-4.964-11.087-11.078
						c0-6.126,4.964-11.09,11.087-11.09C159.239,437.992,164.203,442.956,164.203,449.082z"/>
					<g>
						<path fill="#FBB03B" d="M182.034,492.515c-2.21,0-4.252,0.665-5.982,1.778c5.572,2.557,11.219,4.958,16.848,7.138
							C191.89,496.347,187.411,492.515,182.034,492.515z"/>
						<circle fill="#FBB03B" cx="234.209" cy="436.806" r="11.084"/>
						<path fill="#FBB03B" d="M164.649,403.913c6.123,0,11.081-4.964,11.081-11.084c0-2.102-0.614-4.048-1.632-5.719
							c-5.824,4.431-11.896,8.665-17.887,12.833C158.245,402.35,161.251,403.913,164.649,403.913z"/>
						<circle fill="#FBB03B" cx="182.032" cy="436.806" r="11.086"/>
						<path fill="#FBB03B" d="M245.293,503.599c0-6.12-4.961-11.084-11.084-11.084c-6.12,0-11.084,4.964-11.084,11.084
							c0,2.964,1.177,5.635,3.069,7.623c5.057,0.898,9.89,1.419,14.36,1.449C243.416,510.671,245.293,507.359,245.293,503.599z"/>
						<circle fill="#FBB03B" cx="259.946" cy="470.37" r="11.084"/>
						<path fill="#FBB03B" d="M301.035,470.37c0,6.12,4.967,11.084,11.087,11.084c6.123,0,11.084-4.964,11.084-11.084
							c0-6.12-4.961-11.084-11.084-11.084C306.002,459.286,301.035,464.25,301.035,470.37z"/>
						<circle fill="#FBB03B" cx="207.768" cy="470.37" r="11.084"/>
						<circle fill="#FBB03B" cx="286.387" cy="436.806" r="11.084"/>
						<path fill="#FBB03B" d="M286.387,492.515c-6.123,0-11.084,4.964-11.084,11.084c0,0.88,0.126,1.725,0.317,2.539
							c6.758-2.156,13.668-4.749,20.552-7.641C294.322,494.952,290.66,492.515,286.387,492.515z"/>
						<path fill="#FBB03B" d="M325.383,399.811c-6-4.18-12.072-8.419-17.905-12.869c-1.075,1.713-1.725,3.719-1.725,5.886
							c0,6.12,4.967,11.084,11.084,11.084C320.302,403.913,323.353,402.29,325.383,399.811z"/>
					</g>
					<g>
						<g>
							<g>
								<path fill="#7D1B00" d="M154.861,483.634c-0.207-0.063,0.891-3.998,2.03-10.49c1.157-6.486,2.385-15.52,3.098-25.554
									c0.768-10.03,0.816-19.148,0.501-25.72c-0.115-1.639-0.21-3.126-0.327-4.426c-0.152-1.297-0.282-2.414-0.389-3.328
									c-0.319-1.805-0.456-2.825-0.369-2.849c0.088-0.024,0.393,0.952,0.873,2.755c0.199,0.908,0.384,2.029,0.616,3.331
									c0.188,1.306,0.349,2.799,0.525,4.451c0.557,6.614,0.656,15.8-0.116,25.882c-0.717,10.087-2.099,19.157-3.499,25.638
									c-0.176,0.81-0.343,1.581-0.501,2.311c-0.185,0.724-0.36,1.406-0.523,2.045c-0.328,1.276-0.612,2.373-0.913,3.253
									C155.302,482.699,154.949,483.66,154.861,483.634z"/>
							</g>
						</g>
					</g>
					<path fill="#FBB03B" d="M358.378,425.997c-1.584,0.874-3.384,1.419-5.33,1.419c-6.123,0-11.084-4.964-11.084-11.084
						c0-1.449,0.296-2.827,0.805-4.096C348.572,416.668,353.914,421.194,358.378,425.997z"/>
					<path fill="#FBB03B" d="M318.386,449.896c0,6.126,4.961,11.09,11.084,11.09c6.12,0,11.087-4.964,11.087-11.09
						c0-6.12-4.967-11.084-11.087-11.084C323.347,438.812,318.386,443.776,318.386,449.896z"/>
					<g>
						<g>
							<g>
								<path fill="#7D1B00" d="M329.137,483.634c-0.087,0.026-0.44-0.935-1.007-2.703c-0.301-0.88-0.585-1.977-0.913-3.253
									c-0.163-0.638-0.338-1.321-0.523-2.045c-0.158-0.73-0.325-1.501-0.501-2.31c-1.4-6.481-2.783-15.551-3.501-25.638
									c-0.773-10.082-0.674-19.268-0.117-25.882c0.176-1.652,0.337-3.146,0.526-4.451c0.233-1.302,0.417-2.423,0.617-3.331
									c0.48-1.803,0.786-2.779,0.873-2.755c0.088,0.024-0.049,1.044-0.369,2.849c-0.107,0.914-0.238,2.031-0.39,3.328
									c-0.117,1.301-0.212,2.787-0.327,4.426c-0.315,6.573-0.267,15.69,0.502,25.72c0.714,10.034,1.943,19.069,3.1,25.554
									C328.247,479.636,329.345,483.571,329.137,483.634z"/>
							</g>
						</g>
					</g>
					<g>
						<g>
							<g>
								<path fill="#261204" d="M264.312,165.881c-0.023,0.088-0.965-0.126-2.664-0.594c-0.423-0.122-0.902-0.238-1.409-0.41
									c-0.497-0.198-1.037-0.413-1.618-0.645c-0.58-0.235-1.2-0.487-1.858-0.754c-0.661-0.262-1.309-0.641-2.016-0.985
									c-5.644-2.797-12.873-7.735-20.003-14.123c-7.192-6.326-13.043-12.734-17.137-17.466c-2.034-2.381-3.617-4.36-4.678-5.754
									c-1.047-1.405-1.591-2.208-1.521-2.264c0.071-0.057,0.75,0.636,1.915,1.937c1.176,1.29,2.877,3.156,4.979,5.462
									c4.256,4.554,10.181,10.824,17.314,17.098c7.075,6.338,14.115,11.321,19.562,14.285
									C260.618,164.662,264.386,165.625,264.312,165.881z"/>
							</g>
						</g>
					</g>
					<g>
						<g>
							<g>
								<path fill="#261204" d="M304.777,171.522c-0.141,0.116-2.225-2.162-5.554-5.874c-3.33-3.71-7.898-8.862-13.054-14.444
									c-5.15-5.586-9.929-10.531-13.52-13.969c-3.579-3.449-5.982-5.371-5.859-5.542c0.054-0.073,0.712,0.334,1.862,1.14
									c0.583,0.394,1.271,0.908,2.034,1.544c0.764,0.635,1.671,1.324,2.593,2.169c3.78,3.287,8.692,8.158,13.859,13.762
									c5.173,5.601,9.64,10.861,12.793,14.732C303.085,168.915,304.918,171.406,304.777,171.522z"/>
							</g>
						</g>
					</g>
					<g>
						<g>
							<g>
								<path fill="#261204" d="M297.753,171.982c-0.175,0.314-5.584-2.384-11.847-6.422c-1.573-0.996-3.014-2.04-4.34-2.961
									c-1.299-0.965-2.437-1.88-3.39-2.646c-1.834-1.645-2.867-2.754-2.747-2.881c0.129-0.138,1.377,0.718,3.316,2.142
									c1.001,0.68,2.193,1.49,3.516,2.388c1.353,0.859,2.798,1.862,4.361,2.851C292.839,168.462,297.934,171.662,297.753,171.982z
									"/>
							</g>
						</g>
					</g>
				</g>
			</g>
		</g>
	</g>
</g>
</svg>
